<svg width="123" height="41" viewBox="0 0 123 41" fill="none" xmlns="http://www.w3.org/2000/svg">
<path d="M27 26.5L33 20.5L27 14.5M9 14.5L3 20.5L9 26.5M21.75 8.5L14.25 32.5" stroke="url(#paint0_linear_2774_4283)" stroke-width="3" stroke-linecap="round" stroke-linejoin="round"/>
<path d="M49.7617 29H46.0469L46.0703 26.2578H49.7617C50.6836 26.2578 51.4609 26.0508 52.0938 25.6367C52.7266 25.2148 53.2031 24.6016 53.5234 23.7969C53.8516 22.9922 54.0156 22.0195 54.0156 20.8789V20.0469C54.0156 19.1719 53.9219 18.4023 53.7344 17.7383C53.5547 17.0742 53.2852 16.5156 52.9258 16.0625C52.5664 15.6094 52.125 15.2695 51.6016 15.043C51.0781 14.8086 50.4766 14.6914 49.7969 14.6914H45.9766V11.9375H49.7969C50.9375 11.9375 51.9805 12.1328 52.9258 12.5234C53.8789 12.9062 54.7031 13.457 55.3984 14.1758C56.0938 14.8945 56.6289 15.7539 57.0039 16.7539C57.3867 17.7461 57.5781 18.8516 57.5781 20.0703V20.8789C57.5781 22.0898 57.3867 23.1953 57.0039 24.1953C56.6289 25.1953 56.0938 26.0547 55.3984 26.7734C54.7109 27.4844 53.8867 28.0352 52.9258 28.4258C51.9727 28.8086 50.918 29 49.7617 29ZM48.0391 11.9375V29H44.5234V11.9375H48.0391ZM66.7656 26.1406V20.4922C66.7656 20.0859 66.6992 19.7383 66.5664 19.4492C66.4336 19.1523 66.2266 18.9219 65.9453 18.7578C65.6719 18.5938 65.3164 18.5117 64.8789 18.5117C64.5039 18.5117 64.1797 18.5781 63.9062 18.7109C63.6328 18.8359 63.4219 19.0195 63.2734 19.2617C63.125 19.4961 63.0508 19.7734 63.0508 20.0938H59.6758C59.6758 19.5547 59.8008 19.043 60.0508 18.5586C60.3008 18.0742 60.6641 17.6484 61.1406 17.2812C61.6172 16.9062 62.1836 16.6133 62.8398 16.4023C63.5039 16.1914 64.2461 16.0859 65.0664 16.0859C66.0508 16.0859 66.9258 16.25 67.6914 16.5781C68.457 16.9062 69.0586 17.3984 69.4961 18.0547C69.9414 18.7109 70.1641 19.5312 70.1641 20.5156V25.9414C70.1641 26.6367 70.207 27.207 70.293 27.6523C70.3789 28.0898 70.5039 28.4727 70.668 28.8008V29H67.2578C67.0938 28.6562 66.9688 28.2266 66.8828 27.7109C66.8047 27.1875 66.7656 26.6641 66.7656 26.1406ZM67.2109 21.2773L67.2344 23.1875H65.3477C64.9023 23.1875 64.5156 23.2383 64.1875 23.3398C63.8594 23.4414 63.5898 23.5859 63.3789 23.7734C63.168 23.9531 63.0117 24.1641 62.9102 24.4062C62.8164 24.6484 62.7695 24.9141 62.7695 25.2031C62.7695 25.4922 62.8359 25.7539 62.9688 25.9883C63.1016 26.2148 63.293 26.3945 63.543 26.5273C63.793 26.6523 64.0859 26.7148 64.4219 26.7148C64.9297 26.7148 65.3711 26.6133 65.7461 26.4102C66.1211 26.207 66.4102 25.957 66.6133 25.6602C66.8242 25.3633 66.9336 25.082 66.9414 24.8164L67.832 26.2461C67.707 26.5664 67.5352 26.8984 67.3164 27.2422C67.1055 27.5859 66.8359 27.9102 66.5078 28.2148C66.1797 28.5117 65.7852 28.7578 65.3242 28.9531C64.8633 29.1406 64.3164 29.2344 63.6836 29.2344C62.8789 29.2344 62.1484 29.0742 61.4922 28.7539C60.8438 28.4258 60.3281 27.9766 59.9453 27.4062C59.5703 26.8281 59.3828 26.1719 59.3828 25.4375C59.3828 24.7734 59.5078 24.1836 59.7578 23.668C60.0078 23.1523 60.375 22.7188 60.8594 22.3672C61.3516 22.0078 61.9648 21.7383 62.6992 21.5586C63.4336 21.3711 64.2852 21.2773 65.2539 21.2773H67.2109ZM76.3281 11V29H72.9414V11H76.3281ZM84.9531 29.2344C83.9688 29.2344 83.0859 29.0781 82.3047 28.7656C81.5234 28.4453 80.8594 28.0039 80.3125 27.4414C79.7734 26.8789 79.3594 26.2266 79.0703 25.4844C78.7812 24.7344 78.6367 23.9375 78.6367 23.0938V22.625C78.6367 21.6641 78.7734 20.7852 79.0469 19.9883C79.3203 19.1914 79.7109 18.5 80.2188 17.9141C80.7344 17.3281 81.3594 16.8789 82.0938 16.5664C82.8281 16.2461 83.6562 16.0859 84.5781 16.0859C85.4766 16.0859 86.2734 16.2344 86.9688 16.5312C87.6641 16.8281 88.2461 17.25 88.7148 17.7969C89.1914 18.3438 89.5508 19 89.793 19.7656C90.0352 20.5234 90.1562 21.3672 90.1562 22.2969V23.7031H80.0781V21.4531H86.8398V21.1953C86.8398 20.7266 86.7539 20.3086 86.582 19.9414C86.418 19.5664 86.168 19.2695 85.832 19.0508C85.4961 18.832 85.0664 18.7227 84.543 18.7227C84.0977 18.7227 83.7148 18.8203 83.3945 19.0156C83.0742 19.2109 82.8125 19.4844 82.6094 19.8359C82.4141 20.1875 82.2656 20.6016 82.1641 21.0781C82.0703 21.5469 82.0234 22.0625 82.0234 22.625V23.0938C82.0234 23.6016 82.0938 24.0703 82.2344 24.5C82.3828 24.9297 82.5898 25.3008 82.8555 25.6133C83.1289 25.9258 83.457 26.168 83.8398 26.3398C84.2305 26.5117 84.6719 26.5977 85.1641 26.5977C85.7734 26.5977 86.3398 26.4805 86.8633 26.2461C87.3945 26.0039 87.8516 25.6406 88.2344 25.1562L89.875 26.9375C89.6094 27.3203 89.2461 27.6875 88.7852 28.0391C88.332 28.3906 87.7852 28.6797 87.1445 28.9062C86.5039 29.125 85.7734 29.2344 84.9531 29.2344ZM107.688 11.9375H111.191V23.2109C111.191 24.5234 110.91 25.6289 110.348 26.5273C109.793 27.4258 109.023 28.1016 108.039 28.5547C107.062 29.0078 105.938 29.2344 104.664 29.2344C103.391 29.2344 102.258 29.0078 101.266 28.5547C100.281 28.1016 99.5078 27.4258 98.9453 26.5273C98.3906 25.6289 98.1133 24.5234 98.1133 23.2109V11.9375H101.629V23.2109C101.629 23.9766 101.75 24.6016 101.992 25.0859C102.234 25.5703 102.582 25.9258 103.035 26.1523C103.496 26.3789 104.039 26.4922 104.664 26.4922C105.305 26.4922 105.848 26.3789 106.293 26.1523C106.746 25.9258 107.09 25.5703 107.324 25.0859C107.566 24.6016 107.688 23.9766 107.688 23.2109V11.9375ZM117.824 11.9375V29H114.32V11.9375H117.824Z" fill="#12A594"/>
<defs>
<linearGradient id="paint0_linear_2774_4283" x1="41" y1="21" x2="1" y2="21" gradientUnits="userSpaceOnUse">
<stop stop-color="#0EB39E"/>
<stop offset="1" stop-color="#2F7C57"/>
</linearGradient>
</defs>
</svg>
